<svg width="431.59999999999997px" height="112.39999999999999px" xmlns="http://www.w3.org/2000/svg" viewBox="34.20000000000002 18.800000000000004 431.59999999999997 112.39999999999999" style="background: rgba(0, 0, 0, 0);" preserveAspectRatio="xMidYMid"><defs><linearGradient id="editing-outline-gradient" x1="-0.41354545764260087" x2="1.4135454576426008" y1="0.09326335692419985" y2="0.9067366430758002"><stop offset="0" stop-color="#ee4208"></stop><stop offset="1" stop-color="#4139ff"></stop></linearGradient><filter id="editing-outline" x="-100%" y="-100%" width="300%" height="300%"><feMorphology in="SourceGraphic" operator="dilate" radius="1" result="outline"></feMorphology><feComposite operator="out" in="outline" in2="SourceAlpha"></feComposite></filter></defs><g filter="url(#editing-outline)"><g transform="translate(100.49997127056122, 97.86000061035156)"><path d="M15.67-1.67L11.84 0L11.84-31.85L1.08-31.85L2.75-35.67L26.44-35.67L24.76-31.85L15.67-31.85L15.67-1.67ZM41.39-3.88L41.39-3.88L41.39-3.88Q43.40-3.88 44.93-5.38L44.93-5.38L44.93-5.38Q46.42-6.84 46.46-9.07L46.46-9.07L46.46-9.40L50.29-11.10L50.29-9.00L50.29-9.00Q50.29-5.65 47.42-2.58L47.42-2.58L47.42-2.58Q44.98 0 41.25 0L41.25 0L41.25 0Q37.52 0 34.88-2.63L34.88-2.63L34.88-2.63Q32.25-5.26 32.25-9.00L32.25-9.00L32.25-17.80L32.25-17.80Q32.25-21.53 34.88-24.17L34.88-24.17L34.88-24.17Q37.52-26.80 41.25-26.80L41.25-26.80L41.25-26.80Q44.84-26.80 47.64-24.17L47.64-24.17L47.64-24.17Q50.29-21.68 50.29-17.80L50.29-17.80L50.29-15.55L36.08-9.24L36.08-9.24Q36.08-6.96 37.59-5.42L37.59-5.42L37.59-5.42Q39.09-3.88 41.39-3.88ZM41.10-22.92L41.10-22.92L41.10-22.92Q39.09-22.92 37.59-21.41L37.59-21.41L37.59-21.41Q36.08-19.91 36.08-17.80L36.08-17.80L36.08-17.80Q36.08-17.75 36.08-17.73L36.08-17.73L36.08-13.42L46.44-18.04L46.44-18.04Q46.32-20.05 44.93-21.41L44.93-21.41L44.93-21.41Q43.40-22.92 41.10-22.92ZM66.44-13.40L57.92-25.12L61.32-26.80L68.79-16.32L76.23-26.80L79.63-25.12L71.18-13.45L79.65-1.67L76.16 0L68.79-10.43L61.42 0L57.95-1.67L66.44-13.40ZM101.49-9.24L101.49-9.24L101.49-9.24Q101.49-9.24 105.32-10.91L105.32-10.91L105.32-9.00L105.32-9.00Q105.32-5.26 102.69-2.63L102.69-2.63L102.69-2.63Q100.06 0 96.33 0L96.33 0L96.33 0Q92.59 0 89.94-2.63L89.94-2.63L89.94-2.63Q87.28-5.26 87.28-9.00L87.28-9.00L87.28-22.49L84.31-22.49L85.99-26.32L87.28-26.32L87.28-34.48L91.11-36.15L91.11-26.32L103.26-26.32L101.59-22.49L91.11-22.49L91.11-9.07L91.11-9.07Q91.16-6.82 92.64-5.38L92.64-5.38L92.64-5.38Q94.20-3.88 96.28-3.88L96.28-3.88L96.28-3.88Q98.41-3.88 99.96-5.41L99.96-5.41L99.96-5.41Q101.49-6.89 101.49-9.24ZM113.38 0L115.06-3.83L134.25-3.83L132.57 0L113.38 0ZM151.31-21.72L151.31-21.72L151.31-21.72Q155.97-21.20 158.94-18.33L158.94-18.33L158.94-18.33Q162.10-15.26 162.10-10.81L162.10-10.81L162.10-10.74L162.10-10.74Q162.10-6.20 158.99-3.11L158.99-3.11L158.99-3.11Q155.85 0 151.35 0L151.35 0L151.35 0Q146.81 0 143.72-3.11L143.72-3.11L143.72-3.11Q140.56-6.32 140.56-10.65L140.56-10.65L140.56-10.96L144.39-12.63L144.39-10.58L144.39-10.58Q144.39-7.70 146.45-5.69L146.45-5.69L146.45-5.69Q148.51-3.66 151.35-3.66L151.35-3.66L151.35-3.66Q154.25-3.66 156.28-5.69L156.28-5.69L156.28-5.69Q158.32-7.75 158.32-10.60L158.32-10.60L158.32-10.60Q158.32-13.59 156.35-15.46L156.35-15.46L156.35-15.46Q154.11-17.59 151.45-17.78L151.45-17.78L151.45-17.78Q146.90-18.14 144.32-20.72L144.32-20.72L144.32-20.72Q141.64-23.38 141.64-27.13L141.64-27.13L141.64-27.13Q141.64-30.91 144.27-33.52L144.27-33.52L144.27-33.52Q146.90-36.15 150.64-36.15L150.64-36.15L150.64-36.15Q154.42-36.15 157.02-33.52L157.02-33.52L157.02-33.52Q159.68-30.84 159.68-27.16L159.68-27.16L159.68-26.92L155.85-25.19L155.85-27.08L155.85-27.08Q155.80-29.31 154.32-30.77L154.32-30.77L154.32-30.77Q152.77-32.30 150.64-32.30L150.64-32.30L150.64-32.30Q148.51-32.30 147.02-30.82L147.02-30.82L147.02-30.82Q145.49-29.26 145.49-27.13L145.49-27.13L145.49-27.13Q145.49-25.00 147.02-23.47L147.02-23.47L147.02-23.47Q148.46-22.04 151.31-21.72ZM173.68-7.03L173.68-7.03L173.68-7.03Q173.68-6.24 174.30-5.41L174.30-5.41L174.30-5.41Q175.45-3.88 177.96-3.88L177.96-3.88L177.96-3.88Q179.49-3.88 180.66-4.59L180.66-4.59L182.10-0.98L182.10-0.98Q180.23 0 177.96 0L177.96 0L177.96 0Q174.37 0 171.60-2.63L171.60-2.63L171.60-2.63Q169.73-4.55 169.73-7.03L169.73-7.03L169.73-7.03Q169.73-7.13 169.73-7.23L169.73-7.23L169.73-7.23Q169.73-11.70 174.30-13.57L174.30-13.57L184.04-17.56L184.04-17.56Q184.04-19.83 182.53-21.38L182.53-21.38L182.53-21.38Q181.02-22.92 178.73-22.92L178.73-22.92L178.73-22.92Q176.72-22.92 175.18-21.41L175.18-21.41L175.18-21.41Q173.70-19.95 173.65-17.73L173.65-17.73L173.65-17.39L169.83-15.70L169.83-17.80L169.83-17.80Q169.83-21.15 172.70-24.21L172.70-24.21L172.70-24.21Q175.14-26.80 178.87-26.80L178.87-26.80L178.87-26.80Q182.60-26.80 185.23-24.17L185.23-24.17L185.23-24.17Q187.87-21.53 187.87-17.80L187.87-17.80L187.87-1.67L184.04 0L184.04-13.37L176.17-10.17L176.17-10.17Q173.68-9.00 173.68-7.03ZM201.17-17.73L201.17-9.07L201.17-9.07Q201.17-6.87 202.77-5.38L202.77-5.38L202.77-5.38Q204.40-3.88 206.48-3.88L206.48-3.88L206.48-3.88Q208.49-3.88 210.02-5.38L210.02-5.38L210.02-5.38Q211.50-6.84 211.55-9.07L211.55-9.07L211.55-17.73L211.55-17.73Q211.50-19.95 210.02-21.41L210.02-21.41L210.02-21.41Q208.49-22.92 206.19-22.92L206.19-22.92L206.19-22.92Q204.18-22.92 202.68-21.41L202.68-21.41L202.68-21.41Q201.19-19.93 201.17-17.87L201.17-17.87L201.17-17.73ZM201.17 7.68L197.34 9.35L197.34-17.80L197.34-17.80Q197.34-21.53 200.00-24.17L200.00-24.17L200.00-24.17Q202.65-26.80 206.38-26.80L206.38-26.80L206.38-26.80Q210.12-26.80 212.75-24.17L212.75-24.17L212.75-24.17Q215.38-21.53 215.38-17.80L215.38-17.80L215.38-9.00L215.38-9.00Q215.38-5.26 212.75-2.63L212.75-2.63L212.75-2.63Q210.12 0 206.38 0L206.38 0L206.38 0Q203.44 0 201.17-1.63L201.17-1.63L201.17 7.68ZM231.67-0.92L231.67-0.92L231.67-0.92Q230.76-1.84 230.76-3.16L230.76-3.16L230.76-3.16Q230.76-4.47 231.67-5.40L231.67-5.40L231.67-5.40Q232.58-6.32 233.87-6.32L233.87-6.32L233.87-6.32Q235.17-6.32 236.08-5.40L236.08-5.40L236.08-5.40Q236.98-4.47 236.98-3.16L236.98-3.16L236.98-3.16Q236.98-1.84 236.08-0.92L236.08-0.92L236.08-0.92Q235.17 0 233.87 0L233.87 0L233.87 0Q232.58 0 231.67-0.92ZM256.20-17.73L256.20-9.07L256.20-9.07Q256.20-6.87 257.80-5.38L257.80-5.38L257.80-5.38Q259.43-3.88 261.51-3.88L261.51-3.88L261.51-3.88Q263.52-3.88 265.05-5.38L265.05-5.38L265.05-5.38Q266.53-6.84 266.58-9.07L266.58-9.07L266.58-17.73L266.58-17.73Q266.53-19.95 265.05-21.41L265.05-21.41L265.05-21.41Q263.52-22.92 261.22-22.92L261.22-22.92L261.22-22.92Q259.21-22.92 257.70-21.41L257.70-21.41L257.70-21.41Q256.22-19.93 256.20-17.87L256.20-17.87L256.20-17.73ZM256.20 7.68L252.37 9.35L252.37-17.80L252.37-17.80Q252.37-21.53 255.02-24.17L255.02-24.17L255.02-24.17Q257.68-26.80 261.41-26.80L261.41-26.80L261.41-26.80Q265.15-26.80 267.78-24.17L267.78-24.17L267.78-24.17Q270.41-21.53 270.41-17.80L270.41-17.80L270.41-9.00L270.41-9.00Q270.41-5.26 267.78-2.63L267.78-2.63L267.78-2.63Q265.15 0 261.41 0L261.41 0L261.41 0Q258.47 0 256.20-1.63L256.20-1.63L256.20 7.68ZM294.10 0.50L294.10 0.50L294.10-1.60L294.10-1.60Q291.85 0 288.93 0L288.93 0L288.93 0Q285.20 0 282.54-2.63L282.54-2.63L282.54-2.63Q279.88-5.26 279.88-9.00L279.88-9.00L279.88-25.12L283.71-26.80L283.71-9.07L283.71-9.07Q283.76-6.84 285.24-5.38L285.24-5.38L285.24-5.38Q286.77-3.88 289.07-3.88L289.07-3.88L289.07-3.88Q291.08-3.88 292.59-5.38L292.59-5.38L292.59-5.38Q294.07-6.87 294.10-8.92L294.10-8.92L294.10-9.07L294.10-25.12L297.92-26.80L297.92 0.57L297.92 0.57Q297.92 4.31 295.27 6.94L295.27 6.94L295.27 6.94Q292.61 9.57 288.88 9.57L288.88 9.57L288.88 9.57Q285.15 9.57 282.52 6.94L282.52 6.94L282.52 6.94Q280.84 5.26 280.24 3.16L280.24 3.16L284.05 2.34L284.05 2.34Q284.43 3.37 285.31 4.19L285.31 4.19L285.31 4.19Q286.97 5.69 289.02 5.69L289.02 5.69L289.02 5.69Q291.03 5.69 292.56 4.19L292.56 4.19L292.56 4.19Q294.05 2.73 294.10 0.50Z" fill="url(#editing-outline-gradient)"></path></g></g><style>text {
  font-size: 64px;
  font-family: Arial Black;
  dominant-baseline: central;
  text-anchor: middle;
}</style></svg>