<svg width="750.8375px" height="185.6px" xmlns="http://www.w3.org/2000/svg" viewBox="-125.41874999999999 -17.799999999999997 750.8375 185.6" style="background: none;" preserveAspectRatio="xMidYMid"><defs><linearGradient id="editing-glowing-gradient" x1="0.6953655642446368" x2="0.3046344357553632" y1="0.03974757327377981" y2="0.9602524267262202"><stop offset="0" stop-color="#827887"></stop><stop offset="1" stop-color="#35c6c6"></stop></linearGradient><filter id="editing-glowing" x="-100%" y="-100%" width="300%" height="300%"><feGaussianBlur in="SourceGraphic" result="blur" stdDeviation="9.5"></feGaussianBlur><feMerge><feMergeNode in="blur"></feMergeNode><feMergeNode in="SourceGraphic"></feMergeNode></feMerge></filter></defs><g filter="url(#editing-glowing)"><g transform="translate(-15.440027475357056, 115.59000205993652)"><path d="M27.82-2.97L21.03 0L21.03-56.54L1.91-56.54L4.89-63.34L46.94-63.34L43.97-56.54L27.82-56.54L27.82-2.97ZM73.49-6.88L73.49-6.88L73.49-6.88Q77.06-6.88 79.78-9.56L79.78-9.56L79.78-9.56Q82.41-12.15 82.50-16.10L82.50-16.10L82.50-16.69L89.29-19.71L89.29-15.97L89.29-15.97Q89.29-10.03 84.20-4.59L84.20-4.59L84.20-4.59Q79.86 0 73.24 0L73.24 0L73.24 0Q66.61 0 61.94-4.67L61.94-4.67L61.94-4.67Q57.26-9.35 57.26-15.97L57.26-15.97L57.26-31.61L57.26-31.61Q57.26-38.23 61.94-42.91L61.94-42.91L61.94-42.91Q66.61-47.58 73.24-47.58L73.24-47.58L73.24-47.58Q79.61-47.58 84.58-42.91L84.58-42.91L84.58-42.91Q89.29-38.49 89.29-31.61L89.29-31.61L89.29-27.61L64.06-16.40L64.06-16.40Q64.06-12.36 66.74-9.62L66.74-9.62L66.74-9.62Q69.41-6.88 73.49-6.88ZM72.98-40.70L72.98-40.70L72.98-40.70Q69.41-40.70 66.74-38.02L66.74-38.02L66.74-38.02Q64.06-35.34 64.06-31.61L64.06-31.61L64.06-31.61Q64.06-31.52 64.06-31.48L64.06-31.48L64.06-23.83L82.45-32.03L82.45-32.03Q82.24-35.60 79.78-38.02L79.78-38.02L79.78-38.02Q77.06-40.70 72.98-40.70ZM117.97-23.79L102.85-44.60L108.88-47.58L122.13-28.97L135.34-47.58L141.38-44.60L126.38-23.87L141.42-2.97L135.22 0L122.13-18.52L109.05 0L102.89-2.97L117.97-23.79ZM180.20-16.40L180.20-16.40L180.20-16.40Q180.20-16.40 187.00-19.37L187.00-19.37L187.00-15.97L187.00-15.97Q187.00-9.35 182.33-4.67L182.33-4.67L182.33-4.67Q177.65 0 171.03 0L171.03 0L171.03 0Q164.40 0 159.68-4.67L159.68-4.67L159.68-4.67Q154.97-9.35 154.97-15.97L154.97-15.97L154.97-39.93L149.70-39.93L152.67-46.73L154.97-46.73L154.97-61.21L161.77-64.19L161.77-46.73L183.35-46.73L180.37-39.93L161.77-39.93L161.77-16.10L161.77-16.10Q161.85-12.11 164.48-9.56L164.48-9.56L164.48-9.56Q167.25-6.88 170.94-6.88L170.94-6.88L170.94-6.88Q174.72-6.88 177.48-9.60L177.48-9.60L177.48-9.60Q180.20-12.23 180.20-16.40ZM201.31 0L204.29-6.80L238.36-6.80L235.38 0L201.31 0ZM268.65-38.57L268.65-38.57L268.65-38.57Q276.93-37.64 282.20-32.54L282.20-32.54L282.20-32.54Q287.81-27.10 287.81-19.20L287.81-19.20L287.81-19.07L287.81-19.07Q287.81-11.00 282.28-5.52L282.28-5.52L282.28-5.52Q276.72 0 268.73 0L268.73 0L268.73 0Q260.66 0 255.18-5.52L255.18-5.52L255.18-5.52Q249.57-11.21 249.57-18.90L249.57-18.90L249.57-19.46L256.37-22.43L256.37-18.78L256.37-18.78Q256.37-13.68 260.02-10.11L260.02-10.11L260.02-10.11Q263.68-6.50 268.73-6.50L268.73-6.50L268.73-6.50Q273.87-6.50 277.48-10.11L277.48-10.11L277.48-10.11Q281.09-13.76 281.09-18.82L281.09-18.82L281.09-18.82Q281.09-24.13 277.61-27.44L277.61-27.44L277.61-27.44Q273.62-31.22 268.90-31.56L268.90-31.56L268.90-31.56Q260.83-32.20 256.24-36.79L256.24-36.79L256.24-36.79Q251.48-41.50 251.48-48.17L251.48-48.17L251.48-48.17Q251.48-54.88 256.16-59.52L256.16-59.52L256.16-59.52Q260.83-64.19 267.46-64.19L267.46-64.19L267.46-64.19Q274.17-64.19 278.80-59.52L278.80-59.52L278.80-59.52Q283.51-54.76 283.51-48.22L283.51-48.22L283.51-47.79L276.72-44.73L276.72-48.09L276.72-48.09Q276.63-52.04 274.00-54.63L274.00-54.63L274.00-54.63Q271.24-57.35 267.46-57.35L267.46-57.35L267.46-57.35Q263.68-57.35 261.04-54.71L261.04-54.71L261.04-54.71Q258.32-51.95 258.32-48.17L258.32-48.17L258.32-48.17Q258.32-44.39 261.04-41.67L261.04-41.67L261.04-41.67Q263.59-39.12 268.65-38.57ZM308.37-12.49L308.37-12.49L308.37-12.49Q308.37-11.09 309.47-9.60L309.47-9.60L309.47-9.60Q311.51-6.88 315.97-6.88L315.97-6.88L315.97-6.88Q318.69-6.88 320.77-8.16L320.77-8.16L323.32-1.74L323.32-1.74Q320.01 0 315.97 0L315.97 0L315.97 0Q309.60 0 304.67-4.67L304.67-4.67L304.67-4.67Q301.36-8.07 301.36-12.49L301.36-12.49L301.36-12.49Q301.36-12.66 301.36-12.83L301.36-12.83L301.36-12.83Q301.36-20.77 309.47-24.09L309.47-24.09L326.76-31.18L326.76-31.18Q326.76-35.22 324.08-37.96L324.08-37.96L324.08-37.96Q321.41-40.70 317.33-40.70L317.33-40.70L317.33-40.70Q313.76-40.70 311.04-38.02L311.04-38.02L311.04-38.02Q308.41-35.43 308.32-31.48L308.32-31.48L308.32-30.88L301.53-27.87L301.53-31.61L301.53-31.61Q301.53-37.55 306.62-42.99L306.62-42.99L306.62-42.99Q310.96-47.58 317.58-47.58L317.58-47.58L317.58-47.58Q324.21-47.58 328.88-42.91L328.88-42.91L328.88-42.91Q333.56-38.23 333.56-31.61L333.56-31.61L333.56-2.97L326.76 0L326.76-23.75L312.78-18.05L312.78-18.05Q308.37-15.97 308.37-12.49ZM357.18-31.48L357.18-16.10L357.18-16.10Q357.18-12.19 360.02-9.56L360.02-9.56L360.02-9.56Q362.91-6.88 366.61-6.88L366.61-6.88L366.61-6.88Q370.17-6.88 372.89-9.56L372.89-9.56L372.89-9.56Q375.53-12.15 375.61-16.10L375.61-16.10L375.61-31.48L375.61-31.48Q375.53-35.43 372.89-38.02L372.89-38.02L372.89-38.02Q370.17-40.70 366.10-40.70L366.10-40.70L366.10-40.70Q362.53-40.70 359.85-38.02L359.85-38.02L359.85-38.02Q357.22-35.39 357.18-31.73L357.18-31.73L357.18-31.48ZM357.18 13.64L350.38 16.61L350.38-31.61L350.38-31.61Q350.38-38.23 355.09-42.91L355.09-42.91L355.09-42.91Q359.81-47.58 366.44-47.58L366.44-47.58L366.44-47.58Q373.06-47.58 377.74-42.91L377.74-42.91L377.74-42.91Q382.41-38.23 382.41-31.61L382.41-31.61L382.41-15.97L382.41-15.97Q382.41-9.35 377.74-4.67L377.74-4.67L377.74-4.67Q373.06 0 366.44 0L366.44 0L366.44 0Q361.21 0 357.18-2.89L357.18-2.89L357.18 13.64ZM411.34-1.64L411.34-1.64L411.34-1.64Q409.72-3.27 409.72-5.61L409.72-5.61L409.72-5.61Q409.72-7.94 411.34-9.58L411.34-9.58L411.34-9.58Q412.95-11.21 415.25-11.21L415.25-11.21L415.25-11.21Q417.54-11.21 419.15-9.58L419.15-9.58L419.15-9.58Q420.77-7.94 420.77-5.61L420.77-5.61L420.77-5.61Q420.77-3.27 419.15-1.64L419.15-1.64L419.15-1.64Q417.54 0 415.25 0L415.25 0L415.25 0Q412.95 0 411.34-1.64ZM454.88-31.48L454.88-16.10L454.88-16.10Q454.88-12.19 457.73-9.56L457.73-9.56L457.73-9.56Q460.62-6.88 464.31-6.88L464.31-6.88L464.31-6.88Q467.88-6.88 470.60-9.56L470.60-9.56L470.60-9.56Q473.23-12.15 473.32-16.10L473.32-16.10L473.32-31.48L473.32-31.48Q473.23-35.43 470.60-38.02L470.60-38.02L470.60-38.02Q467.88-40.70 463.80-40.70L463.80-40.70L463.80-40.70Q460.23-40.70 457.56-38.02L457.56-38.02L457.56-38.02Q454.92-35.39 454.88-31.73L454.88-31.73L454.88-31.48ZM454.88 13.64L448.08 16.61L448.08-31.61L448.08-31.61Q448.08-38.23 452.80-42.91L452.80-42.91L452.80-42.91Q457.51-47.58 464.14-47.58L464.14-47.58L464.14-47.58Q470.77-47.58 475.44-42.91L475.44-42.91L475.44-42.91Q480.11-38.23 480.11-31.61L480.11-31.61L480.11-15.97L480.11-15.97Q480.11-9.35 475.44-4.67L475.44-4.67L475.44-4.67Q470.77 0 464.14 0L464.14 0L464.14 0Q458.92 0 454.88-2.89L454.88-2.89L454.88 13.64ZM522.17 0.89L522.17 0.89L522.17-2.85L522.17-2.85Q518.18 0 512.99 0L512.99 0L512.99 0Q506.37 0 501.65-4.67L501.65-4.67L501.65-4.67Q496.94-9.35 496.94-15.97L496.94-15.97L496.94-44.60L503.73-47.58L503.73-16.10L503.73-16.10Q503.82-12.15 506.45-9.56L506.45-9.56L506.45-9.56Q509.17-6.88 513.25-6.88L513.25-6.88L513.25-6.88Q516.82-6.88 519.49-9.56L519.49-9.56L519.49-9.56Q522.13-12.19 522.17-15.85L522.17-15.85L522.17-16.10L522.17-44.60L528.97-47.58L528.97 1.02L528.97 1.02Q528.97 7.65 524.25 12.32L524.25 12.32L524.25 12.32Q519.54 16.99 512.91 16.99L512.91 16.99L512.91 16.99Q506.28 16.99 501.61 12.32L501.61 12.32L501.61 12.32Q498.64 9.35 497.57 5.61L497.57 5.61L504.33 4.16L504.33 4.16Q505.01 5.99 506.58 7.43L506.58 7.43L506.58 7.43Q509.51 10.11 513.16 10.11L513.16 10.11L513.16 10.11Q516.73 10.11 519.45 7.43L519.45 7.43L519.45 7.43Q522.08 4.84 522.17 0.89Z" fill="url(#editing-glowing-gradient)"></path></g></g><style>text {
  font-size: 64px;
  font-family: Arial Black;
  dominant-baseline: central;
  text-anchor: middle;
}</style></svg>